<svg xmlns="http://www.w3.org/2000/svg" width="52.339" height="72.066" viewBox="0 0 52.339 72.066">
  <g id="Group_1" data-name="Group 1" transform="translate(-0.56 -0.56)">
    <path id="Path_7" data-name="Path 7" d="M28.883,19.511a11.4,11.4,0,0,0-10.8,3.765,14.251,14.251,0,0,0-2.943-.542A14.127,14.127,0,0,0,2.421,28.86,14.609,14.609,0,0,0,1.56,30.3,25.175,25.175,0,0,1,14.609,8.635a13.736,13.736,0,0,1,1.587.026,14.147,14.147,0,0,1,11.663,7.95A14.379,14.379,0,0,1,28.883,19.511Z" transform="translate(0 -3.974)" fill="#8e60ff" stroke="#373846" stroke-linecap="round" stroke-linejoin="round" stroke-miterlimit="10" stroke-width="2"/>
    <path id="Path_8" data-name="Path 8" d="M58.733,13.7a14.07,14.07,0,0,1-4.452,9.271,11.413,11.413,0,0,0-8.6-7.43A14.123,14.123,0,0,0,33,4.691a13.737,13.737,0,0,0-1.587-.026A25.206,25.206,0,0,1,56.7,5.277c.245.4.472.818.678,1.242A14.108,14.108,0,0,1,58.733,13.7Z" transform="translate(-16.796)" fill="#8e60ff" stroke="#373846" stroke-linecap="round" stroke-linejoin="round" stroke-miterlimit="10" stroke-width="2"/>
    <path id="Path_9" data-name="Path 9" d="M95.457,31.5c0,.227,0,.45-.009.673h0c-.052.1-.109.2-.166.293q-.256.433-.538.853A14.111,14.111,0,0,1,78.97,38.877a11.418,11.418,0,0,0,2.073-11.134,14.315,14.315,0,0,0,2.042-2.375,14.137,14.137,0,0,0,1.054-14.077c-.206-.424-.433-.84-.678-1.242A25.175,25.175,0,0,1,95.457,31.5Z" transform="translate(-43.558 -4.777)" fill="#8e60ff" stroke="#373846" stroke-linecap="round" stroke-linejoin="round" stroke-miterlimit="10" stroke-width="2"/>
    <path id="Path_10" data-name="Path 10" d="M81.718,60.65A25.178,25.178,0,0,1,68.7,82.03h0c-.481.013-.971,0-1.452-.035a14.123,14.123,0,0,1-11.663-7.95,14.185,14.185,0,0,1-1.01-2.851,11.491,11.491,0,0,0,1.99.175,11.353,11.353,0,0,0,8.685-4.023,14.179,14.179,0,0,0,3.057.573,14.127,14.127,0,0,0,12.717-6.127c.188-.28.367-.56.538-.853C81.609,60.847,81.661,60.751,81.718,60.65Z" transform="translate(-29.828 -33.249)" fill="#8e60ff" stroke="#373846" stroke-linecap="round" stroke-linejoin="round" stroke-miterlimit="10" stroke-width="2"/>
    <path id="Path_11" data-name="Path 11" d="M51.816,86.126a25.2,25.2,0,0,1-25.045-.446.044.044,0,0,0-.017-.022c-.061-.092-.118-.188-.175-.284-.031-.048-.057-.092-.083-.14s-.057-.092-.083-.14c-.013-.022-.022-.039-.035-.061-.044-.074-.083-.144-.122-.223-.1-.179-.192-.363-.28-.547h0a14.154,14.154,0,0,1,.433-13.084c.192-.337.4-.669.621-.988a14.188,14.188,0,0,1,1.92-2.261,11.4,11.4,0,0,0,8.733,7.364,13.92,13.92,0,0,0,1.01,2.851A14.123,14.123,0,0,0,50.356,86.1,13.643,13.643,0,0,0,51.816,86.126Z" transform="translate(-12.954 -37.346)" fill="#8e60ff" stroke="#373846" stroke-linecap="round" stroke-linejoin="round" stroke-miterlimit="10" stroke-width="2"/>
    <path id="Path_12" data-name="Path 12" d="M15.335,48.812A11.366,11.366,0,0,0,16,52.669a13.965,13.965,0,0,0-1.92,2.261c-.219.319-.424.652-.621.988A14.154,14.154,0,0,0,13.031,69h0c.087.184.184.367.28.547.039.074.079.149.122.223.013.022.022.039.035.061V88.778a4.933,4.933,0,0,1-4.933,4.933H6.493A4.933,4.933,0,0,1,1.56,88.778V49.831c0-.1,0-.2.009-.3-.009-.241-.009-.481-.009-.717,0-.131,0-.262,0-.394a13.369,13.369,0,0,1,.861-1.443,14.127,14.127,0,0,1,12.717-6.127,14.2,14.2,0,0,1,2.943.542A11.324,11.324,0,0,0,15.335,48.812Z" transform="translate(0 -22.085)" fill="#8e60ff" stroke="#373846" stroke-linecap="round" stroke-linejoin="round" stroke-miterlimit="10" stroke-width="2"/>
  </g>
</svg>
